<?xml version="1.0" standalone="no"?>
<!DOCTYPE svg PUBLIC "-//W3C//DTD SVG 20010904//EN"
 "http://www.w3.org/TR/2001/REC-SVG-20010904/DTD/svg10.dtd">
<svg version="1.0" xmlns="http://www.w3.org/2000/svg"
 width="1000.000000pt" height="1000.000000pt" viewBox="0 0 1000.000000 1000.000000"
 preserveAspectRatio="xMidYMid meet">
<metadata>
Created by potrace 1.14, written by Peter Selinger 2001-2017
</metadata>
<g transform="translate(0.000000,1000.000000) scale(0.100000,-0.100000)"
fill="#000000" stroke="none">
<path d="M0 8193 c0 -1150 4 -1813 10 -1823 6 -9 10 -11 10 -3 0 7 7 10 15 7
14 -6 13 -8 -2 -19 -10 -8 -15 -17 -11 -21 5 -4 17 1 28 11 15 13 17 21 9 31
-8 10 -6 11 14 1 l25 -11 -21 -18 c-17 -15 -17 -18 -4 -18 10 0 17 5 17 11 0
5 4 8 9 5 5 -3 7 -15 4 -26 -3 -12 0 -20 6 -20 7 0 10 4 7 9 -12 19 22 33 54
23 18 -7 32 -7 35 -1 4 5 11 9 17 9 7 0 6 -5 -1 -14 -10 -12 -9 -14 6 -11 10
2 18 4 18 6 0 1 10 3 23 4 15 2 20 -1 13 -8 -14 -14 -2 -37 21 -37 13 0 18 5
15 13 -3 8 1 14 9 14 12 0 12 -4 -1 -23 -17 -27 -19 -38 -5 -29 11 7 14 -8 3
-18 -3 -4 -12 1 -19 11 -12 16 -13 16 -14 0 0 -21 20 -28 41 -15 10 6 15 19
12 31 -4 19 -3 20 10 4 9 -12 18 -14 25 -8 9 7 9 7 2 -2 -6 -7 -10 -20 -10
-29 0 -19 -26 -33 -42 -22 -7 3 -8 1 -4 -5 6 -9 42 -10 54 -1 1 1 8 2 15 3 6
1 11 8 9 15 -1 7 2 10 8 6 16 -10 12 -21 -15 -35 -19 -10 -22 -16 -13 -22 10
-6 8 -12 -6 -23 -26 -20 -13 -19 26 1 16 9 28 12 25 7 -3 -5 -1 -15 4 -23 8
-13 10 -13 19 0 8 12 10 12 10 -5 0 -15 2 -17 9 -6 6 9 11 10 15 3 4 -6 13 -9
21 -6 9 4 18 -1 21 -11 5 -13 9 -14 15 -3 7 11 9 11 9 -1 0 -7 6 -11 14 -8 19
7 40 -18 30 -35 -4 -7 2 -5 13 5 20 18 21 18 19 0 0 -10 -5 -21 -11 -25 -6 -5
-5 -12 4 -20 9 -8 11 -9 7 -1 -3 6 -2 14 4 18 6 4 8 10 5 15 -3 4 -1 19 4 32
9 23 9 23 23 -9 11 -25 17 -30 31 -22 11 7 17 7 17 0 0 -5 -5 -11 -12 -13 -7
-3 -8 -10 -4 -17 7 -11 10 -11 18 0 7 10 8 8 3 -7 -3 -14 1 -28 10 -38 10 -10
12 -16 5 -16 -7 0 -10 -7 -6 -15 3 -9 0 -15 -9 -15 -8 0 -15 -4 -15 -9 0 -5
10 -7 23 -5 12 2 17 2 10 -2 -10 -4 -10 -8 0 -19 7 -7 16 -10 21 -7 5 3 7 -2
3 -11 -4 -10 -2 -17 5 -17 6 0 3 -9 -6 -19 -17 -18 -17 -20 1 -38 10 -10 19
-29 20 -43 1 -14 7 -26 13 -28 8 -3 7 -8 -1 -18 -8 -10 -8 -14 0 -14 6 0 10
-3 10 -7 -4 -22 3 -33 19 -34 9 0 12 -3 6 -5 -12 -5 -6 -64 7 -64 5 0 5 7 2
17 -4 10 -2 14 5 9 13 -8 12 -45 -2 -43 -6 1 -11 -8 -12 -20 -1 -13 3 -23 8
-23 5 0 7 -4 4 -9 -4 -5 0 -12 6 -14 10 -4 9 -6 -1 -6 -11 -1 -11 -4 0 -17 7
-9 9 -18 3 -22 -14 -10 -17 -35 -3 -26 9 5 10 -1 6 -23 -3 -17 -3 -33 0 -37 9
-9 12 -66 2 -61 -4 3 -2 -7 6 -22 8 -15 15 -36 15 -45 0 -10 6 -18 13 -18 9 0
8 -3 -2 -9 -9 -6 -10 -11 -3 -15 6 -4 9 -13 5 -21 -3 -8 1 -15 8 -15 7 0 10
-3 6 -6 -3 -3 -2 -17 3 -30 5 -13 5 -26 1 -28 -9 -6 -5 -61 6 -79 4 -7 8 -19
10 -27 1 -8 5 -35 9 -60 4 -25 8 -49 9 -55 1 -5 -2 -15 -7 -21 -5 -7 -2 -16 6
-23 9 -7 13 -28 12 -57 -1 -25 1 -47 6 -50 4 -3 5 -11 1 -19 -3 -9 1 -15 11
-15 9 0 16 -8 16 -17 0 -16 -2 -16 -11 -3 -7 11 -8 -1 -5 -43 3 -36 1 -57 -6
-57 -7 0 -6 -5 2 -15 6 -8 9 -19 6 -24 -4 -5 -2 -12 3 -16 6 -3 13 -26 17 -50
3 -25 10 -43 14 -40 5 3 12 0 16 -6 4 -7 3 -9 -3 -6 -15 9 -20 -18 -15 -83 3
-53 4 -123 3 -165 -3 -55 1 -91 11 -103 8 -8 8 -16 2 -20 -5 -4 -8 -18 -6 -32
1 -14 4 -43 5 -65 1 -22 5 -45 10 -52 10 -16 -3 -44 -17 -36 -6 3 -8 3 -4 -2
4 -4 3 -14 -4 -22 -8 -10 -8 -12 3 -8 12 4 14 -18 14 -128 -1 -73 -5 -139 -10
-146 -5 -10 -4 -12 3 -7 14 9 14 9 3 -32 -6 -21 -6 -32 0 -32 6 0 7 -5 4 -10
-4 -6 -11 -7 -18 -3 -6 3 -1 -9 10 -28 17 -27 19 -36 8 -46 -7 -6 -11 -24 -8
-40 9 -63 10 -108 3 -134 -6 -19 -4 -30 3 -33 9 -5 9 -7 1 -11 -7 -3 -10 -14
-7 -24 3 -10 0 -22 -6 -25 -6 -4 -8 -20 -4 -38 5 -24 3 -29 -7 -23 -9 6 -11 4
-5 -4 13 -23 9 -102 -6 -112 -8 -5 -9 -9 -3 -9 6 0 9 -18 8 -42 -1 -24 2 -48
7 -54 6 -7 6 -22 -1 -38 -6 -18 -6 -25 0 -21 6 3 10 -1 10 -10 0 -11 -5 -15
-15 -11 -12 4 -13 2 -3 -14 7 -10 16 -16 22 -13 5 4 7 -10 3 -35 -3 -23 -1
-42 4 -42 5 0 9 -9 9 -20 0 -11 5 -20 10 -20 6 0 10 -15 10 -32 0 -18 11 -57
25 -86 14 -30 25 -67 25 -84 0 -16 8 -42 19 -56 10 -15 29 -47 41 -72 25 -50
23 -47 112 -140 133 -138 280 -242 373 -264 17 -4 44 -14 60 -21 50 -23 171
-65 189 -65 9 0 16 -5 16 -10 0 -6 3 -9 8 -8 4 2 41 -5 82 -14 41 -10 107 -25
145 -33 39 -9 83 -18 99 -20 15 -3 35 -7 45 -9 15 -5 162 -25 226 -30 17 -2
62 -6 101 -10 102 -11 470 -13 609 -4 136 8 312 37 485 79 19 4 59 13 88 20
28 6 52 16 52 20 0 5 22 9 49 9 28 0 53 5 56 10 3 6 17 10 30 10 13 0 26 4 29
9 3 5 14 7 25 4 11 -3 21 2 24 11 4 9 13 16 21 16 9 0 32 9 53 19 63 32 152
72 158 71 10 -1 130 63 133 71 2 5 15 9 28 9 13 0 24 4 24 8 0 4 25 21 55 37
30 17 55 34 55 39 0 5 3 6 7 3 3 -4 13 2 20 13 8 11 18 18 22 16 4 -3 20 8 35
25 15 16 34 29 41 29 7 0 18 7 25 15 6 8 15 14 18 13 23 -3 42 3 37 12 -3 6
-1 10 5 10 6 0 8 5 5 10 -3 6 1 10 9 10 9 0 16 8 17 18 0 10 3 12 6 5 10 -27
21 -11 16 24 -5 32 -4 36 12 29 15 -5 16 -4 6 8 -9 11 -8 14 6 12 10 0 18 7
20 19 1 11 0 14 -3 8 -3 -7 -11 -13 -17 -13 -6 0 -3 8 7 18 13 12 20 14 23 5
3 -7 9 -13 14 -13 6 0 6 7 0 19 -9 16 -8 18 9 14 13 -3 20 0 20 8 0 8 11 27
25 43 14 16 25 26 25 22 0 -4 10 2 22 14 12 11 26 20 30 20 5 0 6 5 3 10 -3 5
-1 10 4 10 6 0 11 -4 11 -9 0 -6 12 -6 30 1 27 9 29 12 18 27 -12 14 -11 14 4
3 10 -8 14 -20 11 -29 -5 -12 -3 -14 7 -8 9 5 11 4 6 -4 -6 -9 -11 -9 -22 0
-11 9 -14 9 -14 0 0 -7 -4 -10 -8 -7 -4 2 -14 1 -21 -3 -9 -6 -10 -11 -2 -15
6 -4 11 -1 12 6 0 7 4 4 9 -7 8 -19 9 -19 9 -1 1 17 3 17 25 2 27 -17 39 -9
30 21 -5 17 -5 17 6 0 6 -9 8 -22 5 -27 -5 -8 22 -15 47 -11 4 0 10 -8 13 -19
4 -11 10 -18 15 -15 4 3 6 -4 3 -15 -3 -11 -1 -20 5 -20 6 0 13 8 15 18 3 9 4
-1 2 -22 -5 -51 -17 -62 -41 -35 -19 22 -19 22 4 16 16 -4 21 -2 18 6 -3 7 -9
20 -12 29 -7 20 -13 22 -32 9 -11 -6 -10 -10 3 -15 14 -5 15 -9 4 -22 -8 -10
-9 -18 -3 -22 6 -4 13 -15 17 -25 6 -15 10 -16 27 -5 11 7 24 25 29 40 6 16
12 28 15 28 5 0 1 -24 -9 -55 -6 -19 -6 -19 8 -3 8 10 18 14 22 10 5 -4 5 1 2
11 -4 11 -3 16 3 12 14 -9 12 -32 -2 -38 -10 -4 -9 -8 2 -16 8 -6 20 -11 25
-11 6 0 4 4 -3 9 -11 7 -11 9 0 13 14 6 48 -13 48 -26 0 -4 -4 -5 -8 -2 -11 6
-9 -25 2 -43 7 -10 3 -12 -15 -7 l-24 6 23 -11 c26 -14 28 -25 5 -31 -27 -6
-54 2 -47 14 4 7 2 8 -4 4 -18 -11 -14 -26 7 -26 11 0 23 -5 26 -11 5 -7 12
-6 23 4 10 9 25 12 35 8 17 -6 17 -8 -5 -18 -12 -5 -33 -9 -46 -7 -13 2 -30 0
-39 -4 -13 -8 -12 -10 6 -15 11 -3 21 -1 21 3 0 4 9 6 20 3 25 -7 25 -15 1
-44 -20 -24 -20 -24 -35 -4 -8 11 -18 16 -22 12 -5 -4 -3 -11 3 -15 7 -4 16
-19 22 -32 7 -18 10 -20 10 -7 1 9 7 17 15 17 8 0 17 -8 21 -17 6 -16 8 -15
16 6 6 16 5 28 -2 38 -7 7 -9 16 -6 20 4 3 13 -9 21 -28 12 -29 12 -35 -1 -44
-12 -9 -13 -16 -5 -32 6 -11 10 -22 8 -24 -3 -2 8 -5 23 -6 21 -1 30 4 39 25
9 21 10 22 7 5 -3 -13 -8 -32 -11 -43 -4 -15 1 -22 21 -30 15 -6 31 -8 36 -4
5 3 9 -5 9 -18 0 -17 -3 -19 -9 -9 -5 7 -14 10 -21 6 -7 -4 -25 8 -46 31 -23
26 -34 34 -34 23 0 -9 7 -20 16 -23 8 -3 13 -10 10 -15 -3 -5 3 -11 15 -14 11
-3 19 -12 17 -21 -2 -8 0 -14 3 -13 3 1 14 -5 24 -13 11 -9 16 -10 11 -2 -4 6
-2 12 3 12 6 0 11 -7 11 -16 0 -8 4 -13 8 -10 4 2 9 -6 10 -20 1 -13 -4 -24
-11 -25 -6 0 -3 -4 8 -9 11 -5 14 -9 8 -9 -7 -1 -13 -6 -13 -12 0 -5 4 -7 10
-4 5 3 10 -1 10 -10 0 -19 23 -45 39 -45 6 0 11 8 11 18 0 15 -2 15 -11 2 -9
-12 -10 -12 -7 -1 3 8 10 17 16 19 11 3 17 -30 13 -66 -2 -15 10 -16 27 -2 7
5 4 0 -7 -11 -18 -20 -18 -23 -2 -53 9 -17 21 -34 26 -38 6 -4 11 -13 11 -20
1 -7 2 -19 3 -25 0 -7 9 -13 19 -13 14 0 14 -2 3 -9 -12 -8 -12 -12 2 -26 10
-9 17 -26 17 -37 0 -14 5 -18 15 -14 8 3 15 1 15 -4 0 -6 -4 -10 -8 -10 -5 0
-9 -6 -9 -14 0 -8 8 -12 21 -9 17 4 18 3 6 -6 -10 -7 -11 -11 -3 -11 7 0 10
-6 7 -14 -3 -7 1 -20 8 -27 17 -17 32 -52 19 -45 -5 3 -12 -1 -15 -10 -3 -8
-10 -12 -16 -9 -7 4 -7 -3 0 -20 7 -18 7 -33 0 -46 -14 -25 10 -52 37 -42 17
7 17 6 0 -11 -18 -19 -22 -36 -8 -36 5 0 11 -8 15 -17 3 -10 9 -24 12 -32 5
-9 3 -11 -6 -6 -9 5 -11 4 -6 -4 4 -6 12 -9 17 -6 8 6 13 -8 10 -27 0 -5 3 -8
9 -8 20 0 10 -19 -12 -23 -16 -3 -13 -5 12 -6 19 -2 29 -5 22 -8 -6 -2 -10 -8
-7 -13 6 -10 -15 -8 -32 3 -7 5 -13 5 -13 2 0 -8 32 -41 37 -37 9 7 33 1 33
-9 0 -5 -4 -7 -10 -4 -14 9 -13 -8 2 -23 9 -9 7 -12 -10 -12 -13 0 -22 6 -22
16 0 8 -7 22 -15 30 -13 14 -15 14 -15 0 0 -9 4 -16 9 -16 5 0 12 -11 15 -25
4 -14 11 -23 15 -20 5 3 7 -4 4 -15 -3 -11 -9 -17 -14 -14 -5 3 -6 -2 -3 -10
3 -9 2 -16 -4 -16 -5 0 -13 -7 -16 -16 -5 -14 -4 -15 7 -5 11 9 17 7 28 -6 11
-13 11 -17 1 -20 -6 -3 -10 -8 -7 -13 2 -4 -4 -15 -15 -25 -14 -12 -17 -25
-13 -46 3 -18 1 -29 -6 -29 -6 0 -11 7 -11 16 0 8 -4 13 -10 9 -5 -3 -7 -12
-3 -20 3 -8 0 -15 -6 -15 -6 0 -8 -7 -5 -15 4 -10 0 -15 -10 -15 -13 0 -15 -6
-10 -27 4 -16 13 -35 21 -44 12 -14 12 -17 -1 -22 -9 -4 -15 -1 -13 6 4 24
-37 12 -44 -13 -4 -14 -7 -21 -8 -17 -1 4 -7 2 -15 -5 -14 -13 -4 -51 12 -45
4 1 7 -2 7 -8 0 -5 -3 -9 -7 -8 -4 2 -5 -4 -1 -13 5 -13 7 -13 14 -2 5 7 9 9
9 4 0 -5 -8 -18 -17 -29 -13 -15 -15 -21 -5 -24 6 -3 12 -13 12 -24 0 -10 5
-19 11 -19 5 0 8 4 5 9 -3 5 1 12 10 15 10 4 14 1 11 -6 -2 -7 3 -22 12 -33 9
-12 10 -15 1 -7 -19 17 -33 15 -26 -3 8 -21 -16 -14 -30 8 -8 15 -10 12 -10
-18 0 -35 10 -47 19 -22 2 6 7 9 11 6 3 -3 -3 -15 -14 -27 -21 -22 -27 -57
-11 -66 4 -3 6 5 4 18 -4 17 1 25 16 29 12 3 21 13 21 22 0 10 5 13 12 9 8 -5
9 -2 5 9 -3 10 -2 17 3 17 13 0 13 -27 0 -35 -8 -5 -7 -12 2 -23 12 -16 11
-16 -6 -2 -18 14 -18 13 -12 -8 6 -18 4 -21 -10 -15 -14 5 -16 2 -10 -20 5
-23 3 -27 -16 -28 -13 -1 -29 -1 -35 0 -16 2 -17 -15 -1 -25 6 -4 14 -2 16 4
6 20 28 13 28 -8 0 -13 -5 -19 -13 -16 -7 3 -13 -2 -13 -11 0 -9 3 -14 6 -10
3 3 17 2 30 -3 14 -6 26 -6 29 0 10 16 24 11 36 -12 11 -20 10 -21 -3 -11 -12
11 -18 9 -34 -9 -13 -16 -14 -19 -2 -10 11 9 18 10 23 2 3 -6 10 -8 14 -6 4 3
8 -1 8 -9 0 -10 -4 -12 -12 -5 -7 6 -24 6 -41 1 -16 -4 -35 -6 -41 -4 -7 3
-13 0 -13 -6 0 -6 5 -11 11 -11 5 0 7 -5 3 -11 -4 -7 -1 -10 7 -7 8 3 13 10
12 15 -1 5 7 10 18 10 17 2 19 0 8 -14 -17 -19 -23 -57 -8 -48 6 4 8 13 5 21
-3 8 -2 14 3 14 14 0 20 -39 7 -44 -6 -2 -4 -5 4 -5 9 -1 22 5 29 11 11 10 14
10 18 1 4 -10 431 -13 2089 -13 l2084 0 0 5000 0 5000 -5000 0 -5000 0 0
-1807z m2297 -113 c40 -6 81 -14 90 -19 10 -6 52 -19 92 -31 150 -43 324 -141
466 -260 31 -26 178 -181 205 -216 43 -54 128 -192 134 -216 3 -16 10 -28 14
-28 11 0 82 -156 100 -220 6 -19 18 -62 28 -95 10 -33 19 -69 20 -80 2 -11 5
-33 8 -50 3 -16 8 -39 10 -50 16 -84 20 -132 19 -210 -2 -184 -13 -331 -27
-375 -43 -135 -56 -183 -62 -220 -4 -22 -11 -43 -15 -46 -5 -3 -9 -14 -9 -26
0 -11 -6 -32 -14 -46 -7 -15 -19 -40 -26 -57 -7 -16 -19 -42 -26 -57 -8 -14
-14 -33 -14 -42 0 -8 -12 -29 -27 -45 -38 -40 -63 -73 -63 -84 0 -4 -21 -29
-46 -55 -25 -26 -57 -64 -70 -84 -13 -21 -29 -38 -34 -38 -6 0 -10 -5 -10 -12
0 -6 -11 -26 -25 -44 -14 -18 -25 -37 -25 -43 0 -6 -8 -11 -18 -11 -10 0 -45
-24 -78 -53 -94 -83 -151 -127 -158 -120 -3 4 -6 1 -6 -5 0 -7 -5 -12 -11 -12
-6 0 -25 -11 -42 -24 -69 -52 -257 -146 -292 -146 -13 0 -39 -9 -57 -20 -18
-11 -44 -20 -56 -20 -13 0 -49 -7 -80 -16 -72 -21 -327 -14 -412 12 -216 64
-387 172 -513 325 -47 57 -159 282 -144 291 8 5 7 8 -5 8 -10 0 -15 7 -14 18
2 9 -1 20 -6 23 -5 3 -11 12 -12 20 -2 8 -6 21 -9 29 -3 8 -8 30 -11 49 -4 19
-12 42 -20 50 -12 15 -17 32 -31 114 -3 15 -9 36 -14 46 -6 10 -8 21 -6 23 3
3 -2 24 -10 48 -8 24 -13 45 -10 48 3 3 -1 12 -8 20 -9 13 -9 14 1 8 14 -9 16
15 3 59 -4 17 -5 39 -1 49 4 11 0 33 -8 48 -8 16 -12 38 -9 49 3 11 0 19 -6
19 -8 0 -9 3 -1 8 10 6 10 32 1 107 -2 17 0 38 4 47 6 10 4 18 -4 22 -8 4 -9
8 -1 11 7 4 9 24 7 53 -3 26 -4 55 -3 65 0 9 2 37 3 61 1 24 6 42 10 39 5 -3
8 21 7 53 -3 102 -1 130 9 115 6 -10 9 -2 8 22 0 21 -6 37 -11 37 -6 0 -5 4 3
9 7 5 10 14 7 20 -4 6 -4 17 1 24 10 15 14 35 16 70 1 15 6 27 11 27 5 0 6 3
3 7 -4 3 -2 11 3 18 5 6 11 31 14 56 2 24 9 56 15 72 6 15 7 27 3 27 -4 0 -1
4 6 9 7 4 16 23 19 42 2 18 14 41 25 51 12 10 18 18 15 18 -3 0 -1 14 4 30 6
17 15 30 20 30 5 0 9 5 9 10 0 6 20 44 45 84 25 41 45 79 45 85 0 6 4 11 8 11
5 0 17 18 27 40 10 23 53 74 94 115 42 40 87 85 101 99 14 14 30 26 34 26 5 0
16 8 25 18 19 22 171 105 171 94 0 -4 4 -1 8 6 5 7 17 14 28 16 10 3 39 14 64
25 47 21 129 39 214 46 27 3 51 6 52 8 6 5 154 -3 231 -13z m5189 -397 l30
-68 24 68 c24 67 24 67 62 67 l38 0 0 -105 c0 -105 0 -105 -25 -105 -23 0 -24
4 -27 63 l-3 62 -25 -62 c-20 -50 -29 -63 -46 -63 -17 0 -27 13 -47 63 l-26
62 -1 -62 c0 -60 -1 -63 -25 -63 l-25 0 0 105 0 105 33 0 c31 0 35 -4 63 -67z
m324 47 c0 -17 -7 -20 -40 -20 -33 0 -40 -3 -40 -20 0 -17 7 -20 41 -20 36 0
40 -2 37 -22 -2 -19 -10 -24 -40 -26 -54 -5 -52 -32 2 -32 36 0 40 -2 40 -25
0 -24 -2 -25 -65 -25 l-65 0 0 105 0 105 65 0 c58 0 65 -2 65 -20z m136 -47
l30 -68 24 68 c24 67 24 67 62 67 l38 0 0 -105 c0 -105 0 -105 -25 -105 -23 0
-24 4 -27 63 l-3 62 -25 -62 c-20 -50 -29 -63 -46 -63 -17 0 -27 13 -47 63
l-26 62 -1 -62 c0 -60 -1 -63 -25 -63 l-25 0 0 105 0 105 33 0 c31 0 35 -4 63
-67z m324 47 c0 -17 -7 -20 -40 -20 -33 0 -40 -3 -40 -20 0 -17 7 -20 41 -20
36 0 40 -2 37 -22 -2 -19 -10 -24 -40 -26 -54 -5 -52 -32 2 -32 36 0 40 -2 40
-25 0 -24 -2 -25 -65 -25 l-65 0 0 105 0 105 65 0 c58 0 65 -2 65 -20z m-3985
-1000 c3 -6 -1 -7 -9 -4 -18 7 -21 14 -7 14 6 0 13 -4 16 -10z m66 -37 c13
-15 12 -15 -8 -4 -24 12 -29 21 -14 21 5 0 15 -7 22 -17z m-3865 -478 c-9 -9
-16 -13 -16 -8 0 12 22 34 28 28 2 -2 -3 -11 -12 -20z m85 -8 c-10 -9 -11 -8
-5 6 3 10 9 15 12 12 3 -3 0 -11 -7 -18z m-122 -40 c1 -4 -5 -2 -13 5 -7 7
-11 19 -8 27 4 11 7 10 13 -5 4 -10 8 -23 8 -27z m116 -20 c-7 -16 -29 -17
-42 -2 -4 4 -3 5 4 1 6 -3 18 0 25 8 16 17 21 14 13 -7z m205 -327 c0 -5 -2
-10 -4 -10 -3 0 -8 5 -11 10 -3 6 -1 10 4 10 6 0 11 -4 11 -10z m5573 -500 c9
0 17 -4 17 -10 0 -5 11 -19 24 -32 13 -13 36 -52 52 -88 16 -36 42 -86 60
-111 17 -25 35 -55 38 -67 4 -12 11 -22 15 -22 5 0 14 -13 21 -30 7 -16 20
-32 29 -35 9 -2 22 -19 30 -37 16 -36 98 -118 154 -155 21 -13 64 -51 95 -83
48 -50 181 -150 199 -150 3 0 42 -21 87 -47 127 -75 138 -81 196 -109 126 -62
165 -79 174 -76 5 2 12 -1 15 -5 7 -10 102 -51 261 -114 58 -22 125 -51 150
-65 25 -13 77 -35 115 -50 154 -57 305 -125 305 -136 0 -5 5 -8 10 -8 21 0
195 -125 285 -204 40 -35 132 -86 157 -86 7 0 22 -7 32 -15 10 -8 22 -12 27
-10 18 12 279 -271 279 -303 0 -5 12 -31 26 -57 15 -26 29 -63 31 -83 2 -21 5
-48 7 -62 5 -46 18 -100 25 -100 10 0 4 -99 -9 -144 -22 -74 -32 -96 -41 -90
-5 3 -9 0 -9 -6 0 -22 -85 -90 -113 -90 -7 0 -24 -12 -36 -26 -20 -23 -22 -34
-17 -78 8 -60 8 -62 5 -103 -1 -23 -7 -33 -18 -33 -13 0 -13 -2 -2 -9 10 -6
10 -10 1 -16 -6 -4 -9 -13 -6 -21 3 -8 -1 -17 -9 -20 -7 -3 -17 -19 -20 -36
-5 -23 -9 -27 -16 -17 -6 10 -9 3 -9 -20 0 -24 -8 -44 -27 -63 -15 -15 -22
-28 -16 -28 6 0 14 6 16 13 4 8 6 8 6 0 1 -6 -14 -24 -31 -39 -18 -15 -32 -31
-31 -36 2 -4 -2 -8 -9 -8 -9 0 -9 -3 0 -12 16 -16 -3 -38 -35 -38 -26 0 -93
-25 -93 -35 0 -3 5 -3 10 0 6 3 10 3 10 -2 0 -4 -25 -19 -55 -33 -30 -14 -55
-29 -55 -33 0 -4 -8 -4 -17 1 -11 6 -28 5 -45 -2 -21 -9 -24 -15 -17 -29 6 -9
6 -17 2 -17 -4 0 -2 -4 6 -9 14 -9 9 -41 -8 -41 -5 0 -24 14 -42 31 -40 38
-62 46 -114 45 -28 -1 -39 -5 -37 -14 1 -8 -2 -11 -6 -8 -5 3 -34 -1 -63 -8
-30 -8 -66 -12 -82 -9 -15 3 -33 1 -40 -5 -7 -6 -35 -12 -63 -13 -59 -3 -66
-18 -26 -62 18 -18 23 -30 16 -37 -17 -17 -60 5 -102 50 -20 22 -49 43 -65 45
-23 5 -27 2 -27 -20 0 -16 11 -32 30 -47 32 -24 39 -55 15 -65 -18 -6 -141 53
-149 72 -5 14 -104 67 -159 85 -32 10 -43 9 -73 -5 l-36 -17 27 -28 c50 -52 2
-70 -55 -20 -19 16 -40 29 -47 30 -7 0 -17 9 -23 20 -9 16 -68 57 -71 48 -7
-25 -4 -38 7 -42 8 -3 14 -10 14 -16 0 -12 -57 27 -107 74 -18 16 -33 26 -33
22 0 -5 -7 -3 -15 4 -9 7 -40 14 -70 15 -30 2 -61 7 -68 12 -6 6 -33 18 -59
28 -27 10 -48 21 -48 24 0 4 -16 6 -35 6 -19 -1 -35 2 -35 7 0 5 -4 7 -9 3 -6
-3 10 -26 35 -51 45 -47 51 -59 35 -68 -16 -10 -59 12 -103 53 -33 30 -50 38
-72 36 -16 -2 -47 5 -70 15 -22 10 -67 26 -99 35 -57 17 -173 94 -184 122 -3
8 -12 12 -20 9 -13 -5 -36 3 -173 66 -76 35 -170 97 -170 112 0 6 -5 4 -10 -4
-8 -13 -17 -11 -60 13 -27 15 -60 27 -73 27 -30 0 -71 27 -147 99 -78 73 -117
93 -190 99 -30 3 -66 12 -80 22 -33 23 -62 33 -81 31 -9 -1 -22 5 -29 14 -7 8
-19 15 -27 15 -8 0 -11 5 -8 10 3 6 -1 10 -9 10 -9 0 -16 -6 -16 -12 0 -7 -5
-5 -11 5 -6 9 -15 15 -20 11 -6 -3 -20 2 -31 13 -12 10 -18 13 -15 6 4 -6 3
-14 -3 -18 -6 -4 -8 -10 -5 -15 3 -5 0 -12 -6 -16 -7 -4 -10 -3 -7 2 3 5 -3
17 -14 27 -17 16 -18 16 -18 -4 0 -19 -1 -19 -16 -4 -13 13 -19 13 -33 3 -9
-7 -19 -17 -22 -22 -8 -11 -90 -10 -98 1 -3 5 -26 10 -51 12 -25 2 -55 4 -67
5 -11 0 -19 4 -17 7 2 4 -15 7 -39 7 -77 1 -112 7 -120 20 -10 14 -57 8 -68
-9 -4 -7 -5 -17 -3 -24 3 -7 -7 -12 -28 -12 -18 0 -64 -5 -101 -11 -225 -34
-511 124 -725 399 -51 65 -129 215 -118 226 3 3 -3 18 -14 33 -11 16 -20 32
-20 37 0 5 -18 43 -39 85 -30 58 -36 79 -27 88 8 10 8 11 -3 5 -11 -6 -13 -4
-7 11 5 10 8 24 7 29 -1 6 -4 44 -6 85 -3 41 -7 83 -9 92 -2 9 1 19 8 21 8 3
8 8 -2 19 -10 12 -9 27 4 77 11 45 13 70 6 91 -6 15 -7 32 -3 36 8 9 32 87 36
114 5 33 19 76 32 97 8 12 12 27 8 33 -3 5 -1 10 5 10 6 0 9 4 5 10 -6 9 13
50 29 61 5 4 5 12 1 19 -5 9 -4 11 3 6 8 -4 16 3 22 18 5 14 16 26 24 26 8 0
19 19 27 44 9 31 20 46 34 50 12 3 37 16 56 29 19 13 40 22 47 19 7 -2 15 3
18 12 3 9 12 16 18 16 7 0 21 8 32 18 11 10 29 18 41 17 19 -1 38 18 35 35 0
3 11 7 26 8 15 1 33 9 41 17 13 13 13 18 0 42 -8 15 -18 31 -23 34 -5 4 -5 12
-1 19 5 8 10 9 18 1 6 -6 19 -11 29 -11 10 0 18 -5 18 -11 0 -5 5 -7 10 -4 6
3 15 -6 21 -22 6 -15 17 -35 24 -43 16 -18 13 -56 -4 -52 -6 1 -11 -3 -11 -9
0 -5 -6 -7 -12 -3 -10 6 -10 5 -1 -7 17 -20 77 -38 133 -38 107 -2 208 -9 218
-15 6 -3 13 -2 16 3 6 9 62 6 99 -5 9 -3 17 -1 17 4 0 5 29 11 65 11 91 3 105
4 105 12 0 4 8 6 18 5 18 -3 73 13 82 23 10 12 50 31 64 31 23 0 90 33 115 57
13 12 44 32 68 43 25 11 60 36 79 55 19 19 39 35 45 35 6 0 8 4 4 9 -3 5 8 19
25 31 19 14 30 30 30 46 0 17 8 28 28 36 15 7 38 22 51 35 13 12 27 20 32 17
5 -3 9 0 9 6 0 17 28 42 40 35 6 -3 13 0 16 8 3 9 15 18 27 21 38 9 41 11 64
32 13 12 45 27 71 34 26 6 63 19 82 28 19 9 37 17 40 18 29 5 60 18 60 25 0
12 80 33 120 31 19 -1 55 8 80 21 25 12 48 21 53 19 4 -1 7 3 7 10 0 6 3 9 6
6 3 -4 17 0 31 7 15 8 30 12 34 10 4 -3 10 2 13 11 6 15 8 15 24 0 10 -9 26
-16 35 -16z m-2128 -530 c3 -5 1 -10 -4 -10 -6 0 -11 5 -11 10 0 6 2 10 4 10
3 0 8 -4 11 -10z m912 -2186 c-3 -3 -12 -4 -19 -1 -8 3 -5 6 6 6 11 1 17 -2
13 -5z m145 -29 c4 -17 1 -25 -9 -25 -8 0 -27 -10 -43 -22 -16 -12 -32 -19
-34 -17 -3 3 13 16 35 29 28 18 39 30 35 43 -2 9 -1 17 4 17 4 0 10 -11 12
-25z m44 -103 c-4 -3 -14 2 -24 12 -16 18 -16 18 6 6 13 -6 21 -14 18 -18z m4
-25 c0 -5 -7 -7 -15 -3 -8 3 -15 0 -15 -6 0 -6 -3 -9 -6 -5 -3 3 -4 10 0 15 7
12 36 11 36 -1z m5 -27 c3 -5 1 -10 -4 -10 -6 0 -11 5 -11 10 0 6 2 10 4 10 3
0 8 -4 11 -10z m120 -119 c-4 -3 -10 1 -15 9 -5 8 -12 11 -16 7 -9 -9 34 -50
54 -54 8 -1 22 -10 31 -19 15 -17 15 -17 0 -6 -10 7 -27 15 -39 17 -22 4 -22
5 -3 -42 3 -7 1 -13 -4 -13 -5 0 -10 6 -11 13 -6 43 -9 57 -15 63 -4 4 -7 -4
-7 -17 0 -19 -2 -21 -10 -9 -11 17 -13 73 -3 83 3 4 15 0 25 -10 10 -9 16 -19
13 -22z m30 -11 c-3 -5 -12 -10 -18 -10 -7 0 -6 4 3 10 19 12 23 12 15 0z m10
-60 c3 -5 1 -10 -4 -10 -6 0 -11 5 -11 10 0 6 2 10 4 10 3 0 8 -4 11 -10z
m-61 -45 c-4 -8 -11 -12 -16 -9 -6 4 -5 10 3 15 19 12 19 11 13 -6z m46 -50
c0 -8 -2 -15 -4 -15 -2 0 -6 7 -10 15 -3 8 -1 15 4 15 6 0 10 -7 10 -15z m40
-9 c0 -2 -7 -7 -16 -10 -8 -3 -12 -2 -9 4 6 10 25 14 25 6z m-50 -50 c-12 -23
-40 -26 -40 -4 0 5 4 7 8 4 5 -3 15 4 22 14 19 26 26 16 10 -14z m87 -8 c-3
-8 -6 -5 -6 6 -1 11 2 17 5 13 3 -3 4 -12 1 -19z m43 -18 c0 -5 -2 -10 -4 -10
-3 0 -8 5 -11 10 -3 6 -1 10 4 10 6 0 11 -4 11 -10z m-68 -55 c-3 -5 -7 -4 -9
2 -3 7 -12 9 -21 6 -15 -6 -15 -4 -4 10 11 13 17 14 27 4 7 -7 10 -16 7 -22z
m78 -60 c11 -15 11 -17 0 -8 -9 8 -19 9 -32 2 -14 -7 -18 -6 -18 5 0 10 6 13
15 10 8 -4 15 -1 15 7 0 7 1 10 3 8 1 -2 9 -13 17 -24z m70 -9 c0 -3 -4 -8
-10 -11 -5 -3 -10 -1 -10 4 0 6 5 11 10 11 6 0 10 -2 10 -4z m-70 -38 c0 -4
-7 -8 -15 -8 -8 0 -15 4 -15 8 0 5 7 9 15 9 8 0 15 -4 15 -9z m15 -39 c5 -15
12 -18 28 -14 20 5 20 5 4 -5 -10 -7 -21 -9 -24 -6 -4 3 -16 -2 -27 -11 -21
-18 -21 -18 -2 5 17 19 15 26 -6 24 -3 -1 -8 4 -11 11 -3 7 3 14 14 14 10 1
21 -7 24 -18z m1810 1 c3 -5 1 -10 -4 -10 -6 0 -11 5 -11 10 0 6 2 10 4 10 3
0 8 -4 11 -10z m-1758 -77 c0 -9 -4 -10 -14 -2 -7 6 -13 18 -13 26 0 11 3 11
13 1 8 -7 14 -18 14 -25z m3 -67 c0 -3 -4 -8 -10 -11 -5 -3 -10 -1 -10 4 0 6
5 11 10 11 6 0 10 -2 10 -4z m135 -286 c-3 -5 -12 -10 -18 -10 -7 0 -6 4 3 10
19 12 23 12 15 0z m10 -112 c-3 -13 -8 -32 -9 -42 -5 -42 -24 -26 -24 18 1 39
4 46 21 46 15 0 18 -4 12 -22z m55 -420 l-22 -23 19 37 c10 20 19 30 21 22 2
-7 -6 -24 -18 -36z m14 -96 c2 -4 -5 -9 -17 -9 -17 -2 -19 0 -7 7 18 12 18 12
24 2z m-19 -50 c-3 -3 -11 0 -18 7 -9 10 -8 11 6 5 10 -3 15 -9 12 -12z m32
-40 c-11 -12 -13 -22 -6 -35 6 -10 6 -17 1 -17 -11 0 -22 24 -22 46 0 9 4 13
9 9 5 -3 12 -1 16 5 3 5 9 10 12 10 3 0 -1 -8 -10 -18z m-77 4 c0 -3 -4 -8
-10 -11 -5 -3 -10 -1 -10 4 0 6 5 11 10 11 6 0 10 -2 10 -4z m41 -53 c13 -16
12 -17 -3 -4 -10 7 -18 15 -18 17 0 8 8 3 21 -13z m-90 -93 c6 0 8 -15 5 -35
-5 -27 -2 -35 9 -35 8 0 15 -4 15 -10 0 -5 -7 -7 -15 -4 -9 4 -15 0 -15 -10 0
-9 -4 -16 -9 -16 -5 0 -7 9 -4 21 8 30 -16 72 -34 58 -10 -9 -13 -8 -13 4 0
16 16 17 38 3 21 -13 29 4 8 19 -13 10 -16 19 -10 32 7 16 8 16 11 -4 3 -13 9
-23 14 -23z m159 26 c0 -2 -7 -9 -15 -16 -13 -11 -14 -10 -9 4 5 14 24 23 24
12z m-106 -168 c-9 -14 -23 1 -21 23 1 19 2 19 14 3 7 -9 10 -21 7 -26z m-14
-180 c0 -4 -7 -8 -15 -8 -8 0 -15 4 -15 8 0 5 7 9 15 9 8 0 15 -4 15 -9z m-26
-29 c9 1 10 -2 2 -26 -4 -13 -12 -23 -17 -23 -6 0 -7 5 -4 10 3 6 1 10 -5 10
-6 0 -8 5 -5 10 4 6 10 8 15 5 5 -3 12 -1 15 5 4 6 1 9 -6 8 -6 -2 -14 4 -16
12 -4 12 -3 12 5 2 5 -8 12 -13 16 -13z m33 -34 c0 -8 -4 -12 -9 -9 -4 3 -8 9
-8 15 0 5 4 9 8 9 5 0 9 -7 9 -15z"/>
<path d="M1769 7498 c-24 -10 -56 -23 -71 -29 -16 -6 -28 -18 -28 -26 0 -8 -4
-11 -10 -8 -5 3 -10 2 -10 -4 0 -5 -6 -16 -14 -23 -16 -16 -56 -96 -56 -112 0
-6 -6 -22 -13 -36 -31 -61 -29 -232 4 -290 7 -14 12 -28 11 -32 -3 -11 59 -54
93 -65 30 -10 65 -2 96 23 8 6 26 14 42 18 15 3 27 13 27 21 0 7 8 20 18 27
31 23 70 81 91 138 22 59 33 120 22 120 -4 0 -4 29 0 65 9 88 4 106 -45 160
-56 63 -99 78 -157 53z"/>
<path d="M4193 4703 c4 -6 2 -13 -4 -15 -7 -2 -10 -9 -8 -16 3 -7 11 -5 24 6
11 9 18 16 16 15 -2 -2 -11 3 -19 10 -11 8 -14 8 -9 0z"/>
<path d="M4221 4671 c-8 -5 -9 -11 -3 -15 5 -3 12 1 16 9 6 17 6 18 -13 6z"/>
<path d="M4105 4630 c3 -5 8 -10 11 -10 2 0 4 5 4 10 0 6 -5 10 -11 10 -5 0
-7 -4 -4 -10z"/>
<path d="M6385 4329 c-4 -5 -10 -7 -14 -5 -4 3 -38 -10 -74 -28 -37 -19 -67
-32 -67 -29 0 2 -8 -3 -17 -13 -10 -10 -17 -19 -15 -21 1 -2 -8 -14 -21 -26
-27 -26 -55 -81 -63 -129 -4 -18 -11 -39 -17 -46 -5 -6 -7 -25 -4 -41 3 -15 1
-33 -5 -39 -8 -8 -8 -15 -1 -24 6 -7 13 -33 17 -58 9 -59 72 -129 119 -132 45
-2 51 -3 63 -11 17 -10 164 39 164 55 0 4 6 8 13 8 8 0 24 21 37 46 13 25 37
56 52 69 16 14 28 26 27 27 -1 3 18 74 28 103 14 44 18 107 8 132 -7 15 -10
33 -8 40 8 23 -47 94 -85 110 -44 18 -129 26 -137 12z"/>
<path d="M6040 2420 c0 -5 7 -10 15 -10 8 0 15 -5 15 -12 0 -6 2 -9 5 -6 3 3
3 13 -1 22 -7 17 -34 22 -34 6z"/>
<path d="M6414 2265 c-4 -9 0 -24 10 -33 15 -15 16 -14 16 10 0 32 -17 46 -26
23z"/>
<path d="M1 6323 c-1 -14 5 -23 14 -23 8 0 15 -4 15 -10 0 -16 20 -12 27 6 3
8 0 21 -7 27 -10 10 -11 7 -6 -13 7 -24 6 -24 -8 -6 -9 11 -16 16 -17 10 0 -5
-4 0 -9 11 -8 19 -9 19 -9 -2z"/>
<path d="M136 6308 c9 -32 14 -35 24 -18 7 10 10 11 10 3 0 -7 4 -13 10 -13 5
0 6 7 3 17 -5 12 -3 14 7 8 9 -5 11 -4 6 4 -4 6 -16 9 -27 6 -11 -4 -19 -2
-19 4 0 6 -5 11 -11 11 -6 0 -8 -9 -3 -22z"/>
<path d="M70 6300 c0 -11 2 -20 4 -20 2 0 6 9 9 20 3 11 1 20 -4 20 -5 0 -9
-9 -9 -20z"/>
<path d="M265 6120 c-3 -5 -1 -10 4 -10 6 0 11 5 11 10 0 6 -2 10 -4 10 -3 0
-8 -4 -11 -10z"/>
<path d="M407 6110 c3 -11 7 -20 9 -20 2 0 4 9 4 20 0 11 -4 20 -9 20 -5 0 -7
-9 -4 -20z"/>
<path d="M425 6060 c-3 -5 -2 -10 4 -10 5 0 13 5 16 10 3 6 2 10 -4 10 -5 0
-13 -4 -16 -10z"/>
<path d="M660 5981 c0 -5 5 -13 10 -16 6 -3 10 -2 10 4 0 5 -4 13 -10 16 -5 3
-10 2 -10 -4z"/>
<path d="M710 5852 c0 -5 7 -9 15 -9 8 0 15 4 15 9 0 4 -7 8 -15 8 -8 0 -15
-4 -15 -8z"/>
<path d="M3 2821 c0 -11 5 -18 9 -15 4 3 5 11 1 19 -7 21 -12 19 -10 -4z"/>
<path d="M37 2809 c7 -7 15 -10 18 -7 3 3 -2 9 -12 12 -14 6 -15 5 -6 -5z"/>
<path d="M63 2779 c1 -6 -4 -14 -12 -17 -8 -3 -11 0 -7 7 4 6 0 11 -10 11 -14
0 -14 -3 -4 -15 10 -13 10 -19 -2 -33 -27 -31 -27 -38 -2 -40 13 -1 24 3 24 9
0 6 -7 9 -15 5 -13 -5 -14 -2 -4 17 8 14 14 18 17 9 3 -10 8 -9 23 4 13 12 19
13 19 4 0 -7 9 -2 19 11 26 32 19 36 -19 9 -32 -23 -53 -23 -25 0 17 14 20 30
5 30 -5 0 -9 -5 -7 -11z"/>
<path d="M127 2733 c-4 -3 -7 -11 -7 -17 0 -6 5 -5 12 2 6 6 9 14 7 17 -3 3
-9 2 -12 -2z"/>
<path d="M84 2712 c3 -5 1 -12 -6 -14 -8 -3 -9 -6 -1 -11 6 -4 13 0 17 8 3 8
0 17 -6 21 -6 4 -8 3 -4 -4z"/>
<path d="M146 2698 c3 -5 10 -6 15 -3 13 9 11 12 -6 12 -8 0 -12 -4 -9 -9z"/>
<path d="M212 2668 c1 -25 7 -34 20 -35 21 -2 33 13 18 22 -5 3 -10 1 -10 -5
0 -6 -4 -8 -10 -5 -5 3 -10 16 -10 28 0 18 2 19 11 7 9 -12 10 -12 7 -1 -9 32
-29 23 -26 -11z"/>
<path d="M165 2650 c-18 -20 -18 -21 0 -38 18 -16 18 -16 5 2 -13 16 -12 20 5
32 10 8 16 16 13 19 -2 3 -13 -4 -23 -15z"/>
<path d="M35 2649 c-4 -6 -5 -12 -2 -15 2 -3 7 2 10 11 7 17 1 20 -8 4z"/>
<path d="M10 2625 c0 -8 4 -15 10 -15 5 0 7 7 4 15 -4 8 -8 15 -10 15 -2 0 -4
-7 -4 -15z"/>
<path d="M330 2610 c0 -5 5 -10 11 -10 5 0 7 5 4 10 -3 6 -8 10 -11 10 -2 0
-4 -4 -4 -10z"/>
<path d="M126 2595 c4 -8 10 -12 15 -9 9 5 10 4 14 -34 3 -29 7 -33 25 -22 13
8 12 10 -2 10 -11 0 -15 5 -12 15 6 16 -14 49 -33 52 -7 2 -10 -4 -7 -12z"/>
<path d="M240 2599 c0 -5 5 -7 10 -4 6 3 10 8 10 11 0 2 -4 4 -10 4 -5 0 -10
-5 -10 -11z"/>
<path d="M0 2590 c0 -5 5 -10 11 -10 5 0 7 5 4 10 -3 6 -8 10 -11 10 -2 0 -4
-4 -4 -10z"/>
<path d="M192 2592 c-14 -9 -6 -42 10 -42 6 0 5 6 -2 15 -12 15 -4 21 23 16 5
-1 6 3 2 9 -7 12 -16 12 -33 2z"/>
<path d="M63 2568 c-13 -6 -23 -15 -23 -20 0 -5 11 -1 25 8 37 24 35 30 -2 12z"/>
<path d="M317 2563 c-3 -5 4 -15 16 -23 21 -12 21 -12 7 6 -8 10 -15 20 -16
22 -1 2 -4 -1 -7 -5z"/>
<path d="M420 2560 c-8 -5 -12 -11 -9 -14 2 -3 11 -1 19 4 8 5 12 11 9 14 -2
3 -11 1 -19 -4z"/>
<path d="M220 2543 c0 -7 -4 -13 -10 -13 -5 0 -7 -7 -4 -15 7 -17 44 -21 44
-4 0 5 -4 7 -10 4 -5 -3 -10 1 -10 9 0 19 26 21 33 4 4 -10 6 -10 6 0 1 7 5
10 11 7 5 -3 7 0 4 8 -6 17 -64 17 -64 0z"/>
<path d="M377 2535 c3 -8 9 -12 14 -9 12 7 11 11 -5 17 -10 4 -13 1 -9 -8z"/>
<path d="M59 2530 c-1 -5 -2 -14 -3 -19 -2 -19 -16 -23 -17 -5 0 15 -2 14 -10
-6 -8 -20 -12 -22 -19 -10 -8 12 -10 11 -10 -7 0 -12 4 -24 10 -28 13 -8 61 5
55 15 -3 5 5 16 17 25 21 15 21 16 3 13 -14 -2 -19 2 -17 15 2 9 0 17 -3 17
-3 0 -6 -4 -6 -10z m-24 -59 c-3 -6 -11 -11 -17 -11 -6 0 -6 6 2 15 14 17 26
13 15 -4z"/>
<path d="M476 2514 c-9 -24 -2 -26 12 -4 7 11 8 20 3 20 -5 0 -12 -7 -15 -16z"/>
<path d="M112 2500 c0 -14 2 -19 5 -12 2 6 2 18 0 25 -3 6 -5 1 -5 -13z"/>
<path d="M136 2507 c3 -10 9 -15 12 -12 3 3 0 11 -7 18 -10 9 -11 8 -5 -6z"/>
<path d="M175 2510 c-3 -5 -1 -10 4 -10 6 0 11 5 11 10 0 6 -2 10 -4 10 -3 0
-8 -4 -11 -10z"/>
<path d="M339 2483 c-6 -16 -6 -30 -1 -35 6 -6 11 4 14 26 5 43 1 46 -13 9z"/>
<path d="M370 2506 c0 -2 7 -9 15 -16 9 -7 15 -8 15 -2 0 5 -7 12 -15 16 -8 3
-15 4 -15 2z"/>
<path d="M496 2492 c-2 -4 0 -14 6 -22 8 -12 9 -12 5 2 -3 9 -1 19 6 22 9 3 9
5 0 5 -6 1 -14 -3 -17 -7z"/>
<path d="M5113 2485 c0 -8 5 -15 10 -15 5 0 6 -7 3 -16 -5 -14 -4 -15 9 -4 17
14 21 35 5 25 -5 -3 -10 1 -10 9 0 9 -4 16 -8 16 -5 0 -9 -7 -9 -15z"/>
<path d="M315 2479 c-4 -6 -5 -12 -2 -15 2 -3 7 2 10 11 7 17 1 20 -8 4z"/>
<path d="M160 2470 c0 -5 5 -10 11 -10 5 0 7 5 4 10 -3 6 -8 10 -11 10 -2 0
-4 -4 -4 -10z"/>
<path d="M228 2473 c7 -3 16 -2 19 1 4 3 -2 6 -13 5 -11 0 -14 -3 -6 -6z"/>
<path d="M455 2471 c3 -6 2 -11 -4 -11 -6 0 -8 -7 -5 -15 9 -22 -40 -66 -52
-49 -7 10 -12 10 -24 -3 -13 -15 -12 -16 2 -11 10 4 19 1 22 -9 4 -10 2 -14
-8 -10 -8 3 -17 1 -19 -6 -3 -8 -9 -6 -18 5 -10 13 -18 15 -29 8 -13 -8 -13
-10 1 -10 21 0 34 -31 17 -41 -21 -13 -5 -17 30 -7 23 6 32 13 28 24 -3 7 -1
14 4 14 20 0 9 -38 -12 -45 -46 -15 -67 -14 -71 3 -2 9 -5 0 -8 -20 -3 -20 -2
-35 2 -32 4 2 12 -4 18 -13 9 -16 12 -16 21 -3 13 20 13 30 -2 30 -7 1 5 7 27
15 35 13 42 12 55 0 10 -10 11 -15 2 -15 -7 0 -12 -8 -13 -17 0 -15 -2 -15 -8
2 -5 12 -4 23 3 28 7 6 6 7 -4 4 -8 -2 -14 -13 -13 -23 1 -10 0 -13 -3 -6 -3
6 -9 12 -14 12 -9 0 -25 -40 -22 -54 2 -5 -4 -6 -13 -2 -9 3 -19 6 -21 6 -2 0
-4 7 -4 15 0 9 -6 12 -15 9 -10 -4 -15 0 -14 12 2 35 15 69 26 69 6 0 15 3 19
8 4 4 0 7 -9 7 -9 0 -21 8 -27 18 -8 13 -10 13 -9 2 3 -31 -1 -41 -13 -34 -8
5 -7 0 2 -11 8 -10 10 -16 4 -12 -13 8 -37 -16 -27 -26 3 -4 1 -7 -6 -7 -7 0
-11 -6 -8 -14 3 -8 -3 -23 -14 -35 -20 -21 -20 -21 5 -21 18 0 24 -4 20 -15
-4 -8 -10 -15 -16 -15 -5 0 -6 5 -3 10 3 6 1 10 -5 10 -7 0 -9 -7 -6 -16 3 -9
6 -20 6 -26 0 -6 9 -8 19 -5 27 7 32 -21 11 -58 -16 -28 -16 -31 2 -47 19 -16
19 -17 -4 -38 l-23 -21 30 5 c17 4 24 3 18 0 -19 -9 -16 -20 7 -21 13 -1 20 4
20 15 0 15 2 15 10 2 6 -10 5 -17 -5 -23 -23 -13 -45 -61 -35 -77 5 -8 7 -17
4 -21 -2 -5 5 -6 16 -4 11 2 20 0 20 -6 0 -5 -5 -9 -11 -9 -5 0 -7 -4 -4 -10
12 -19 -6 -32 -20 -14 -12 16 -13 16 -24 -3 -6 -12 -8 -29 -5 -37 3 -9 2 -16
-4 -16 -6 0 -17 -3 -26 -6 -9 -3 -16 -1 -16 4 0 6 6 12 13 15 6 2 3 3 -9 1
-18 -3 -20 1 -16 26 2 17 9 30 14 30 6 0 8 -9 5 -20 -3 -11 -2 -20 2 -20 11 0
31 23 31 34 0 6 -5 4 -11 -4 -8 -12 -10 -9 -6 13 4 23 2 25 -11 15 -13 -11
-15 -10 -10 4 4 10 1 19 -8 22 -8 3 -14 10 -14 16 0 6 7 4 16 -5 9 -9 21 -14
28 -12 6 2 16 -5 23 -17 l12 -21 1 22 c0 24 -26 43 -50 36 -11 -3 -11 -1 2 10
16 13 16 16 2 33 -15 18 -15 18 -10 1 9 -27 -2 -39 -24 -27 -26 14 -32 -10 -7
-32 19 -17 19 -17 -3 -48 -12 -17 -16 -29 -10 -28 7 2 15 -3 17 -9 3 -7 0 -13
-6 -13 -6 0 -11 -5 -11 -11 0 -5 5 -7 10 -4 6 3 10 2 10 -4 0 -5 7 -17 16 -25
8 -9 11 -16 4 -16 -6 0 -4 -11 6 -27 11 -19 11 -22 1 -10 -20 23 -30 22 -22
-5 6 -17 4 -20 -9 -15 -14 6 -16 3 -11 -14 5 -14 3 -19 -3 -15 -6 3 -14 1 -18
-5 -5 -9 0 -10 16 -6 13 3 30 1 37 -5 7 -6 13 -7 13 -3 0 4 -8 14 -17 22 -10
8 -12 12 -5 8 6 -3 12 -2 12 3 0 5 9 12 20 15 13 3 20 0 20 -10 0 -10 -6 -13
-16 -9 -10 4 -13 2 -7 -7 4 -6 8 -15 9 -19 1 -5 2 -11 3 -15 0 -3 10 2 21 12
11 10 20 14 20 9 0 -5 -13 -17 -29 -27 -21 -12 -28 -22 -24 -37 3 -11 10 -20
15 -20 6 0 5 -6 -2 -15 -6 -8 -8 -20 -4 -26 4 -8 3 -9 -4 -5 -7 4 -12 3 -12
-3 0 -5 6 -12 13 -15 6 -3 3 -4 -8 -3 -16 2 -19 -3 -18 -23 2 -22 1 -23 -8 -7
-7 13 -7 22 0 31 6 7 7 16 3 20 -4 4 1 13 10 20 16 11 16 15 2 34 -16 23 -34
29 -34 11 0 -5 4 -8 9 -5 5 4 7 -4 4 -15 -6 -21 -6 -21 -18 2 -11 20 -10 25 4
36 9 7 21 13 28 13 6 0 14 4 17 8 3 5 -10 8 -29 8 -18 0 -31 -4 -29 -8 13 -21
-16 -5 -30 17 -15 23 -15 25 1 25 13 0 14 3 6 11 -6 6 -9 19 -6 28 3 9 1 12
-4 6 -17 -21 -63 -6 -63 21 0 8 4 13 9 10 10 -7 45 43 37 52 -3 3 -6 0 -6 -6
0 -7 -9 -12 -20 -12 -24 0 -26 17 -3 42 16 18 16 18 0 12 -12 -4 -17 -1 -17
12 0 16 -2 16 -10 4 -9 -15 -9 -16 -25 35 -2 8 -11 15 -19 15 -12 0 -15 -46
-15 -319 0 -312 0 -320 19 -318 11 1 20 6 20 12 0 5 7 1 15 -9 12 -16 15 -17
15 -4 0 17 26 32 41 22 5 -3 9 2 9 10 0 9 9 16 20 16 11 0 20 5 20 11 0 6 7 9
15 5 8 -3 15 0 15 6 0 6 6 5 17 -3 15 -12 16 -12 9 5 -7 19 -6 19 14 1 18 -16
20 -16 20 -2 0 10 -6 17 -12 17 -9 0 -8 3 2 10 10 6 22 4 37 -6 26 -16 28 -12
12 17 -9 18 -8 19 8 12 20 -10 25 -10 68 2 26 7 27 9 10 16 -17 6 -15 8 10 9
17 0 41 10 55 21 14 11 20 18 13 15 -6 -4 -14 -3 -17 2 -7 12 28 11 35 -1 4
-5 10 0 14 13 6 20 39 60 50 60 2 0 2 -7 -1 -15 -5 -11 -2 -13 10 -9 10 4 16
1 16 -7 1 -10 4 -9 13 3 7 9 26 20 41 24 19 4 25 11 21 22 -5 13 -3 13 11 1
16 -13 16 -12 4 10 -10 21 -10 23 3 18 8 -3 20 0 26 6 8 8 11 8 11 -2 0 -9 8
-11 24 -7 14 3 26 1 28 -4 2 -6 13 -12 25 -13 12 0 21 -4 21 -7 -4 -20 16 -37
40 -33 26 3 26 3 5 -6 -28 -13 -29 -23 -3 -46 11 -10 20 -14 20 -10 0 5 9 -1
20 -13 12 -12 28 -22 36 -22 8 0 13 -4 10 -8 -3 -5 10 -15 29 -22 19 -8 35
-17 35 -21 0 -5 17 -11 37 -15 30 -6 34 -9 18 -14 -15 -5 -9 -9 25 -18 24 -6
47 -9 52 -6 4 3 5 -1 2 -9 -3 -8 0 -18 7 -23 8 -4 10 -3 5 4 -4 7 -2 12 3 12
6 0 11 -4 11 -10 0 -5 6 -10 13 -10 22 0 79 -32 105 -57 13 -13 27 -23 32 -23
21 0 26 -2 42 -16 9 -9 22 -17 30 -18 7 -1 35 -12 62 -24 27 -12 52 -22 57
-22 5 0 9 -4 9 -10 0 -5 7 -10 15 -10 8 0 15 -4 15 -10 0 -5 6 -10 14 -10 7 0
19 -6 25 -14 7 -8 27 -17 45 -20 19 -4 45 -15 58 -26 14 -10 45 -26 69 -36 24
-9 58 -22 76 -30 17 -8 35 -14 40 -14 5 0 19 -9 31 -20 12 -12 22 -19 22 -16
0 2 33 -12 73 -32 39 -19 75 -35 80 -34 4 1 7 -2 7 -7 0 -5 10 -12 23 -16 12
-4 24 -8 27 -9 3 -2 19 -6 35 -11 17 -4 35 -12 40 -19 6 -6 42 -22 80 -35 78
-27 144 -56 222 -100 50 -28 124 -43 139 -28 4 4 2 7 -4 7 -6 0 -18 8 -28 17
-9 10 -23 18 -30 19 -8 1 -21 9 -30 18 -8 9 -26 16 -40 16 -13 0 -24 5 -24 10
0 6 -8 10 -18 10 -10 0 -27 8 -38 18 -10 10 -35 24 -54 32 -19 7 -48 24 -63
37 -16 13 -33 23 -38 23 -5 0 -32 15 -61 33 -44 28 -80 44 -118 51 -9 2 -104
47 -120 57 -8 5 -24 13 -36 18 -11 5 -27 15 -35 23 -13 11 -47 31 -152 85 -15
8 -33 16 -40 17 -7 1 -34 15 -62 30 -89 49 -100 54 -127 67 -15 7 -37 20 -47
31 -11 10 -23 18 -28 18 -4 0 -42 17 -85 38 -48 23 -77 42 -75 51 2 15 -49 34
-65 25 -4 -3 -8 -1 -8 5 0 5 -10 13 -23 17 -12 4 -33 17 -46 30 -13 13 -30 24
-37 24 -8 0 -14 4 -14 8 0 4 -16 14 -35 21 -19 7 -35 16 -35 21 0 5 -7 7 -15
4 -8 -4 -17 1 -21 10 -3 9 -10 13 -16 10 -5 -3 -19 3 -31 14 -12 11 -34 24
-49 27 -20 5 -28 14 -28 29 -1 19 -2 20 -14 4 -14 -20 -28 -14 -19 8 3 9 -1
14 -12 14 -11 0 -15 -5 -11 -15 3 -8 1 -15 -3 -15 -5 0 -12 7 -15 16 -3 8 -10
12 -16 9 -11 -7 -46 22 -38 31 3 2 11 -2 18 -11 15 -18 55 -1 46 21 -7 19 3
18 28 -3 20 -18 20 -17 6 2 -8 11 -19 23 -25 27 -6 4 -2 8 8 8 9 0 17 5 17 11
0 5 4 8 10 4 5 -3 7 -12 4 -19 -3 -8 -1 -17 5 -21 6 -3 11 -1 11 6 0 10 3 10
12 1 7 -7 20 -12 30 -12 10 0 18 -5 18 -11 0 -5 5 -7 10 -4 6 3 10 -1 10 -9 0
-14 11 -18 36 -15 4 0 10 -5 15 -12 4 -8 10 -11 13 -8 3 3 -3 14 -13 26 -19
20 -75 104 -76 113 0 3 -4 11 -8 18 -5 7 -6 21 -2 31 3 11 -1 25 -10 34 -8 9
-15 23 -15 32 0 10 -5 13 -12 9 -7 -5 -8 -3 -2 7 5 8 10 39 12 69 2 30 4 63 5
73 1 9 6 17 12 17 5 0 3 5 -7 10 -10 7 -14 18 -11 32 5 22 5 22 -10 3 -14 -18
-15 -18 -12 8 2 15 0 27 -5 27 -4 0 -6 17 -4 38 3 35 2 37 -29 39 -23 2 -28 0
-17 -7 8 -5 11 -12 8 -15 -11 -12 -29 6 -24 23 6 20 -3 37 -24 44 -11 4 -8 9
11 18 14 6 26 18 26 26 0 18 -2 18 -21 -2 -15 -14 -16 -14 -16 4 0 26 -22 33
-36 13 -10 -12 -15 -13 -27 -3 -12 10 -14 8 -14 -12 0 -21 2 -24 18 -16 24 13
26 13 34 -7 5 -14 4 -15 -6 -6 -19 18 -49 -11 -41 -40 3 -12 1 -19 -3 -14 -5
4 -9 17 -10 30 -2 12 -7 21 -13 20 -5 -1 -13 4 -16 12 -3 8 -2 14 2 14 20 -3
32 2 27 11 -7 12 12 40 27 40 6 0 8 -7 4 -15 -3 -8 -2 -15 3 -15 5 0 11 11 13
24 4 20 1 23 -19 21 -22 -2 -32 9 -15 18 4 2 1 2 -5 1 -13 -3 -17 8 -14 33 1
6 -8 11 -19 10 -11 -1 -20 -5 -20 -10 0 -5 7 -6 16 -3 8 3 12 2 9 -4 -3 -5 1
-20 9 -32 13 -21 12 -25 -7 -43 -17 -17 -19 -17 -14 -3 8 24 -8 31 -27 12 -20
-19 -21 -38 -2 -31 10 4 12 0 9 -14 -3 -11 0 -19 6 -19 7 0 9 -5 5 -11 -4 -8
-9 -7 -15 2 -7 11 -9 11 -9 -1 0 -13 -2 -13 -9 -1 -5 8 -7 21 -3 29 3 10 1 13
-6 8 -23 -14 -6 34 17 50 17 12 19 19 11 29 -7 8 -8 20 -4 27 4 7 -7 -2 -24
-21 -18 -19 -35 -32 -38 -28 -10 10 17 38 30 31 6 -3 2 2 -8 10 -15 12 -17 19
-9 27 6 6 9 18 6 25 -3 8 0 14 6 14 6 0 11 4 11 10 0 5 -6 7 -14 4 -8 -3 -17
0 -21 6 -4 7 4 10 22 8 21 -1 28 -7 29 -25 1 -13 -2 -20 -7 -17 -5 3 -9 -5 -9
-18 0 -22 0 -22 14 -3 7 11 12 31 11 45 -1 22 -7 26 -48 30 -26 3 -47 2 -47
-2 0 -4 5 -8 10 -8 6 0 10 -5 10 -11 0 -6 -7 -9 -15 -5 -9 3 -25 -4 -36 -15
-17 -17 -23 -19 -30 -8 -5 8 -9 17 -9 21 0 12 18 19 25 9 7 -12 35 -3 35 10 0
5 -6 9 -14 9 -8 0 -18 5 -22 12 -4 6 -3 8 4 4 6 -3 13 -3 16 2 2 4 -4 14 -16
21 -11 7 -17 8 -13 2z m-18 -107 c-4 -20 -1 -23 14 -19 23 8 26 -13 4 -22 -21
-7 -25 -2 -31 42 -3 25 -1 34 7 30 6 -4 9 -18 6 -31z m110 6 c4 -26 -14 -35
-22 -10 -7 21 3 46 13 35 3 -3 7 -14 9 -25z m-39 -7 c1 -22 0 -24 -8 -13 -8
12 -10 13 -10 1 0 -8 -2 -12 -5 -10 -6 7 6 49 14 49 4 0 8 -12 9 -27z m-3 -43
c3 -6 -1 -7 -9 -4 -18 7 -21 14 -7 14 6 0 13 -4 16 -10z m-44 -74 c5 3 9 -2 9
-10 0 -13 -3 -14 -19 -4 -11 7 -17 17 -14 22 4 6 8 5 11 -2 2 -7 8 -10 13 -6z
m-76 -35 c-3 -12 -14 -21 -23 -21 -16 1 -15 2 1 11 9 5 17 17 17 26 0 9 3 14
6 10 3 -3 3 -15 -1 -26z m-78 -8 c-2 -35 -22 -60 -31 -38 -8 22 11 63 30 65 1
0 1 -12 1 -27z m129 -18 c-25 -18 -19 -28 11 -20 16 4 26 5 23 3 -3 -2 -16
-12 -29 -23 -14 -11 -21 -14 -17 -7 4 6 2 12 -3 12 -17 0 -13 30 4 36 8 4 15
14 16 23 0 12 2 13 6 2 3 -8 -2 -20 -11 -26z m71 -2 c-8 -7 -37 9 -31 19 3 5
12 4 20 -3 8 -6 13 -14 11 -16z m-153 -24 c13 -26 13 -30 1 -25 -8 3 -17 0
-21 -6 -4 -7 -3 -8 4 -4 7 4 12 1 12 -6 0 -8 -8 -14 -19 -14 -20 0 -27 41 -8
53 6 4 7 1 2 -7 -5 -9 -4 -11 4 -6 6 4 9 16 6 27 -10 30 2 22 19 -12z m222 7
c0 -14 -4 -22 -8 -20 -5 3 -6 10 -3 15 4 5 1 9 -4 9 -6 0 -11 5 -11 10 0 6 6
10 13 10 7 0 13 -11 13 -24z m84 -28 c0 -20 -18 -5 -23 19 -5 26 -4 26 9 8 8
-10 14 -22 14 -27z m-41 15 c0 -11 -3 -13 -6 -5 -2 6 -10 9 -15 6 -7 -4 -8 -2
-4 4 11 18 26 14 25 -5z m-204 -50 c4 -14 2 -23 -4 -23 -6 0 -11 6 -11 14 0 8
-3 23 -6 33 -5 12 -4 15 3 8 6 -5 14 -20 18 -32z m305 16 c0 -5 -7 -9 -15 -9
-15 0 -20 12 -9 23 8 8 24 -1 24 -14z m-416 -41 c-3 -4 -11 -8 -17 -8 -7 0 -6
4 3 10 11 7 11 10 2 10 -7 0 -10 5 -6 11 4 8 9 7 15 -2 4 -7 5 -17 3 -21z
m476 12 c0 -5 -2 -10 -4 -10 -3 0 -8 5 -11 10 -3 6 -1 10 4 10 6 0 11 -4 11
-10z m-416 -15 c-7 -16 -24 -21 -24 -6 0 8 7 13 27 20 1 1 0 -6 -3 -14z m320
-1 c5 -14 4 -15 -9 -4 -17 14 -19 20 -6 20 5 0 12 -7 15 -16z m-264 -25 c0 -6
-4 -7 -10 -4 -5 3 -10 11 -10 16 0 6 5 7 10 4 6 -3 10 -11 10 -16z m244 13 c3
-5 -1 -9 -9 -9 -8 0 -12 4 -9 9 3 4 7 8 9 8 2 0 6 -4 9 -8z m-351 -11 c-4 -3
-10 -10 -14 -14 -3 -4 -11 -2 -17 5 -8 10 -5 13 15 14 13 1 21 -1 16 -5z m230
-8 c-7 -2 -19 -2 -25 0 -7 3 -2 5 12 5 14 0 19 -2 13 -5z m-189 -18 c-5 -12
-10 -13 -20 -4 -11 9 -15 8 -20 -5 -3 -9 -11 -16 -17 -16 -5 0 -2 9 8 20 22
24 57 28 49 5z m89 -11 c3 -3 3 -13 0 -21 -5 -12 -7 -12 -14 -1 -15 23 -4 40
14 22z m-51 -36 c-7 -7 -12 -8 -12 -2 0 14 12 26 19 19 2 -3 -1 -11 -7 -17z
m-50 -42 c-18 -6 -30 -14 -27 -18 3 -3 -1 -8 -10 -11 -16 -7 -19 1 -7 19 7 12
34 21 62 22 8 0 0 -5 -18 -12z m93 -6 c10 -11 16 -20 13 -20 -3 0 -13 9 -23
20 -10 11 -16 20 -13 20 3 0 13 -9 23 -20z m425 -3 c0 -16 -3 -17 -15 -7 -8 7
-15 16 -15 20 0 3 7 7 15 7 8 0 15 -9 15 -20z m-383 -29 c-3 -7 -5 -2 -5 12 0
14 2 19 5 13 2 -7 2 -19 0 -25z m-64 -2 c4 -10 1 -13 -9 -9 -7 3 -14 9 -14 14
0 14 17 10 23 -5z m-64 -38 c-1 -31 -1 -31 -8 -8 -5 14 -6 28 -4 33 9 15 13 6
12 -25z m-319 -13 c0 -8 -4 -15 -10 -15 -5 0 -10 7 -10 15 0 8 5 15 10 15 6 0
10 -7 10 -15z m454 -11 c3 -8 2 -12 -4 -9 -6 3 -10 10 -10 16 0 14 7 11 14 -7z
m90 -21 c10 -25 3 -23 -17 3 -13 18 -14 22 -3 18 8 -3 17 -13 20 -21z m-207
-9 c4 -11 13 -14 30 -9 16 4 22 2 18 -5 -3 -5 -13 -10 -21 -10 -11 0 -12 -4
-3 -19 15 -23 5 -51 -18 -50 -17 1 -17 2 0 6 11 3 17 12 15 24 -3 20 -22 27
-24 9 -3 -23 -5 -24 -14 -10 -14 21 -12 30 5 30 8 0 15 4 15 9 0 13 -26 32
-33 24 -4 -3 -7 -1 -7 5 0 18 30 14 37 -4z m-323 -20 c5 -14 4 -15 -9 -4 -17
14 -19 20 -6 20 5 0 12 -7 15 -16z m286 -5 c0 -6 -4 -7 -10 -4 -5 3 -10 11
-10 16 0 6 5 7 10 4 6 -3 10 -11 10 -16z m470 7 c0 -2 -9 -6 -20 -9 -11 -3
-18 -1 -14 4 5 9 34 13 34 5z m-507 -20 c7 4 5 0 -3 -9 -20 -19 -60 -32 -60
-18 0 6 7 11 15 11 9 0 19 8 22 17 4 11 8 13 11 5 2 -7 9 -9 15 -6z m38 -19
c-1 -12 -15 -9 -19 4 -3 6 1 10 8 8 6 -3 11 -8 11 -12z m-272 -17 c-7 -5 -9
-18 -5 -35 4 -15 3 -24 -2 -21 -13 8 -21 56 -10 56 5 0 6 4 3 10 -3 6 1 7 10
3 12 -4 13 -8 4 -13z m251 -13 c0 -7 -4 -6 -10 3 -6 10 -10 11 -10 3 0 -7 -7
-13 -15 -13 -21 0 -19 18 3 23 21 4 32 -1 32 -16z m-43 -24 c11 -28 31 -45 35
-31 3 7 7 5 11 -5 10 -28 -17 -20 -46 13 -29 32 -32 40 -17 40 6 0 14 -8 17
-17z m93 -12 c5 7 12 10 17 6 4 -5 1 -12 -6 -17 -12 -7 -11 -11 2 -25 10 -9
17 -22 17 -28 0 -7 -5 -4 -11 6 -14 24 -33 22 -19 -2 7 -13 7 -22 0 -26 -14
-9 -32 4 -23 18 10 16 13 58 4 53 -4 -3 -13 4 -20 16 -7 11 -8 17 -2 14 5 -4
13 -1 18 6 5 9 9 6 11 -11 3 -18 6 -21 12 -10z m-60 9 c0 -5 -4 -10 -10 -10
-5 0 -10 5 -10 10 0 6 5 10 10 10 6 0 10 -4 10 -10z m120 0 c-19 -13 -30 -13
-30 0 0 6 10 10 23 10 18 0 19 -2 7 -10z m-330 -32 c0 -9 3 -8 10 2 6 11 12
12 20 4 7 -7 3 -14 -14 -22 -21 -9 -25 -8 -29 9 -3 10 -1 19 4 19 5 0 9 -6 9
-12z m222 -71 c-2 -15 1 -27 5 -27 5 0 17 -6 26 -12 16 -12 15 -13 -8 -14 -15
-1 -22 2 -18 9 4 6 -2 8 -14 5 -30 -8 -51 38 -22 47 10 4 16 11 13 17 -4 6 -1
9 7 6 9 -3 13 -15 11 -31z m408 23 c-8 -5 -19 -10 -25 -10 -5 0 -3 5 5 10 8 5
20 10 25 10 6 0 3 -5 -5 -10z m50 -10 c0 -5 -4 -10 -10 -10 -5 0 -10 5 -10 10
0 6 5 10 10 10 6 0 10 -4 10 -10z m-626 -15 c6 -17 -9 -21 -19 -4 -4 6 -13 8
-21 5 -7 -3 -16 -1 -19 4 -4 6 7 10 23 10 17 0 32 -6 36 -15z m114 -30 c-3 -3
-9 2 -12 12 -6 14 -5 15 5 6 7 -7 10 -15 7 -18z m452 14 c0 -5 5 -7 10 -4 11
7 14 -8 3 -18 -7 -8 -33 11 -33 24 0 5 5 9 10 9 6 0 10 -5 10 -11z m-561 -15
c2 -2 -10 -4 -27 -4 -18 0 -32 5 -32 10 0 9 47 4 59 -6z m615 -9 c-4 -8 -11
-12 -16 -9 -6 4 -5 10 3 15 19 12 19 11 13 -6z m-619 -15 c-3 -5 -12 -10 -18
-10 -7 0 -6 4 3 10 19 12 23 12 15 0z m455 -30 c0 -5 -7 -7 -15 -4 -8 4 -15 8
-15 10 0 2 7 4 15 4 8 0 15 -4 15 -10z m-420 -44 c0 -2 -7 -7 -16 -10 -8 -3
-12 -2 -9 4 6 10 25 14 25 6z m10 -34 c0 -5 -7 -9 -15 -9 -8 0 -12 4 -9 9 3 4
9 8 15 8 5 0 9 -4 9 -8z m70 4 c0 -3 -4 -8 -10 -11 -5 -3 -10 -1 -10 4 0 6 5
11 10 11 6 0 10 -2 10 -4z m20 -35 c0 -6 -4 -12 -8 -15 -5 -3 -9 1 -9 9 0 8 4
15 9 15 4 0 8 -4 8 -9z m59 -35 c-9 -8 -10 -7 -5 7 3 10 7 24 7 30 1 7 3 4 6
-7 3 -10 -1 -23 -8 -30z"/>
<path d="M280 1570 c0 -5 5 -10 11 -10 5 0 7 5 4 10 -3 6 -8 10 -11 10 -2 0
-4 -4 -4 -10z"/>
<path d="M80 2453 c0 -16 2 -16 11 -3 8 12 9 10 4 -7 -4 -14 -2 -23 4 -23 6 0
11 11 11 25 0 16 -6 25 -15 25 -8 0 -15 -8 -15 -17z"/>
<path d="M129 2458 c-3 -30 4 -63 13 -69 15 -9 1 -28 -18 -25 -9 1 -20 9 -24
17 -5 7 -16 14 -24 14 -9 0 -15 5 -15 10 1 6 5 9 10 8 15 -5 10 14 -8 28 -15
12 -16 12 -10 -4 6 -16 3 -18 -23 -12 -18 4 -30 3 -30 -4 0 -6 8 -7 18 -4 15
6 16 5 2 -12 -14 -16 -13 -17 8 -11 18 6 21 4 16 -11 -5 -15 -4 -16 5 -3 9 13
11 11 11 -7 0 -12 -6 -24 -12 -26 -10 -4 -10 -6 0 -6 8 -1 16 8 19 18 4 16 8
17 18 8 7 -7 11 -16 8 -20 -3 -5 3 -7 13 -6 11 2 25 -1 33 -5 11 -7 13 -5 8 8
-5 13 -3 17 7 13 11 -4 13 3 11 29 -2 19 1 34 6 34 5 0 9 -5 9 -11 0 -6 7 -8
17 -5 16 6 16 6 0 -12 -9 -10 -17 -22 -17 -27 0 -4 9 2 19 14 21 24 18 53 -4
45 -7 -3 -19 1 -26 9 -8 7 -20 12 -27 9 -7 -2 -10 2 -6 12 3 9 3 16 0 16 -3 0
-6 -6 -7 -12z"/>
<path d="M416 2456 c3 -8 1 -17 -5 -21 -6 -3 -11 -12 -11 -18 0 -7 6 -4 14 5
7 10 16 15 19 11 9 -8 9 1 1 21 -3 9 -10 16 -15 16 -4 0 -6 -6 -3 -14z"/>
<path d="M5160 2460 c0 -5 5 -10 10 -10 6 0 10 5 10 10 0 6 -4 10 -10 10 -5 0
-10 -4 -10 -10z"/>
<path d="M5200 2460 c-9 -6 -10 -10 -3 -10 6 0 15 5 18 10 8 12 4 12 -15 0z"/>
<path d="M280 2450 c20 -13 33 -13 25 0 -3 6 -14 10 -23 10 -15 0 -15 -2 -2
-10z"/>
<path d="M365 2440 c3 -5 11 -10 16 -10 6 0 7 5 4 10 -3 6 -11 10 -16 10 -6 0
-7 -4 -4 -10z"/>
<path d="M880 2440 c0 -5 7 -7 15 -4 8 4 15 8 15 10 0 2 -7 4 -15 4 -8 0 -15
-4 -15 -10z"/>
<path d="M270 2432 c0 -7 -4 -10 -10 -7 -6 3 -7 -1 -4 -10 5 -11 2 -14 -10 -9
-9 3 -17 1 -17 -5 -1 -6 -2 -16 -3 -22 0 -6 -10 -17 -20 -25 -17 -12 -17 -14
-3 -14 9 0 21 8 26 18 6 9 11 12 11 5 0 -6 3 -19 7 -29 5 -13 3 -16 -10 -11
-11 4 -17 1 -17 -8 0 -7 -5 -17 -11 -21 -8 -4 -9 1 -5 17 6 20 5 21 -4 7 -7
-12 -8 -24 -1 -37 6 -10 7 -22 3 -26 -4 -5 -1 -4 7 0 11 6 13 4 8 -9 -4 -9 -3
-15 2 -11 5 3 12 19 16 35 4 16 11 32 16 35 5 4 9 15 9 26 0 12 4 17 11 13 7
-4 10 -1 7 7 -3 8 5 21 17 29 l22 15 -23 25 c-14 14 -24 19 -24 12z m26 -39
c-7 -7 -26 7 -26 19 0 6 6 6 15 -2 9 -7 13 -15 11 -17z"/>
<path d="M5140 2418 l-25 -19 24 11 c19 10 25 9 32 -1 4 -7 10 -11 13 -9 2 3
-1 12 -8 22 -11 15 -14 15 -36 -4z"/>
<path d="M318 2413 c7 -3 16 -2 19 1 4 3 -2 6 -13 5 -11 0 -14 -3 -6 -6z"/>
<path d="M106 2402 c-2 -4 -1 -14 5 -22 7 -12 9 -10 9 8 0 23 -5 28 -14 14z"/>
<path d="M5185 2360 c-3 -5 -1 -10 4 -10 6 0 11 5 11 10 0 6 -2 10 -4 10 -3 0
-8 -4 -11 -10z"/>
<path d="M5261 2333 c-7 -8 -10 -17 -6 -21 3 -3 9 -2 13 4 8 11 27 12 37 2 4
-3 -3 -9 -14 -13 -12 -3 -21 -11 -21 -16 0 -6 5 -7 10 -4 6 3 10 -1 10 -9 0
-20 16 -21 24 -1 3 8 1 15 -5 15 -6 0 -7 5 -4 10 3 6 11 10 16 10 6 0 7 -4 4
-10 -3 -5 0 -10 8 -10 24 0 27 26 4 27 -11 1 -24 8 -28 14 -11 18 -32 19 -48
2z"/>
<path d="M5190 2328 c0 -17 36 -35 47 -24 4 3 -1 6 -10 6 -9 0 -21 8 -26 18
-9 15 -10 16 -11 0z"/>
<path d="M0 2320 c0 -5 7 -10 15 -10 8 0 15 5 15 10 0 6 -7 10 -15 10 -8 0
-15 -4 -15 -10z"/>
<path d="M36 2315 c-3 -9 0 -15 9 -15 16 0 20 16 6 24 -5 3 -11 -1 -15 -9z"/>
<path d="M74 2318 c3 -11 -3 -23 -16 -32 -19 -14 -23 -14 -33 1 -11 14 -12 14
-18 -1 -4 -10 -1 -16 9 -16 25 0 29 -30 5 -46 -22 -16 -28 -34 -10 -34 5 0 8
4 4 9 -6 11 54 43 66 35 5 -3 9 -12 9 -20 0 -8 4 -14 10 -14 6 0 5 10 -2 25
-6 14 -19 25 -29 25 -10 0 -20 4 -23 8 -3 5 8 6 25 4 16 -2 29 -8 29 -13 0 -5
5 -9 11 -9 8 0 8 5 -1 15 -7 8 -19 15 -26 15 -8 0 -14 5 -14 10 0 13 27 13 35
0 4 -6 15 -8 26 -5 11 4 19 2 19 -4 0 -6 -6 -11 -12 -11 -8 0 -5 -7 6 -15 19
-15 19 -15 -2 -15 -12 0 -22 -4 -22 -10 0 -13 6 -13 31 1 16 8 18 13 8 25 -7
9 -8 14 -1 14 6 0 18 -10 26 -22 9 -12 16 -18 16 -12 0 5 -11 25 -25 44 -14
19 -25 30 -25 24 0 -5 -5 -2 -10 6 -8 12 -10 12 -10 -5 -1 -17 -3 -17 -12 5
-6 16 -12 20 -15 12 -4 -10 -9 -9 -20 5 -13 16 -14 16 -9 1z"/>
<path d="M726 2322 c-2 -4 -1 -14 4 -22 7 -11 9 -9 7 8 -1 24 -3 26 -11 14z"/>
<path d="M750 2304 c0 -8 5 -12 10 -9 6 3 10 10 10 16 0 5 -4 9 -10 9 -5 0
-10 -7 -10 -16z"/>
<path d="M636 2287 c3 -10 9 -15 12 -12 3 3 0 11 -7 18 -10 9 -11 8 -5 -6z"/>
<path d="M771 2273 c-7 -12 -10 -14 -11 -4 0 8 -2 12 -5 9 -3 -3 -3 -13 1 -22
6 -15 8 -15 21 4 8 12 13 24 10 26 -3 3 -10 -3 -16 -13z"/>
<path d="M5223 2275 c1 -11 -2 -26 -6 -32 -11 -18 8 -16 23 2 8 9 8 15 2 15
-6 0 -13 8 -16 18 -4 13 -4 13 -3 -3z"/>
<path d="M805 2269 c-4 -6 -5 -12 -2 -15 2 -3 7 2 10 11 7 17 1 20 -8 4z"/>
<path d="M5270 2251 c14 -27 13 -30 -9 -24 -10 3 -22 0 -25 -6 -4 -6 -2 -11 4
-11 6 0 8 -5 4 -12 -5 -9 -2 -9 9 1 17 14 20 11 18 -24 l-1 -20 9 20 c5 11 6
24 4 28 -3 4 1 14 7 22 9 11 9 15 1 15 -6 0 -11 7 -11 15 0 8 -5 15 -10 15 -7
0 -7 -6 0 -19z"/>
<path d="M850 2210 c0 -5 5 -10 11 -10 5 0 7 5 4 10 -3 6 -8 10 -11 10 -2 0
-4 -4 -4 -10z"/>
<path d="M78 2183 c-24 -6 -23 -19 2 -19 11 0 22 6 24 13 6 13 3 14 -26 6z"/>
<path d="M125 2179 c-11 -16 -1 -19 13 -3 7 8 8 14 3 14 -5 0 -13 -5 -16 -11z"/>
<path d="M20 2176 c0 -4 7 -14 15 -22 8 -9 15 -11 15 -6 0 5 -7 15 -15 22 -8
7 -15 9 -15 6z"/>
<path d="M830 2170 c-8 -5 -12 -12 -9 -15 4 -3 12 1 19 10 14 17 11 19 -10 5z"/>
<path d="M795 2160 c-3 -5 -1 -10 4 -10 6 0 11 5 11 10 0 6 -2 10 -4 10 -3 0
-8 -4 -11 -10z"/>
<path d="M5340 2161 c0 -17 18 -21 24 -6 3 9 0 15 -9 15 -8 0 -15 -4 -15 -9z"/>
<path d="M145 2149 c-9 -14 -2 -20 14 -10 8 6 9 11 3 15 -6 3 -14 1 -17 -5z"/>
<path d="M211 2143 c-1 -12 4 -25 10 -28 6 -5 4 -12 -8 -20 -10 -7 -15 -17
-11 -21 4 -4 14 -2 21 4 8 7 17 9 21 5 4 -4 4 1 0 11 -5 13 -4 17 4 12 6 -3
13 -2 16 3 4 5 -2 8 -11 7 -11 -2 -23 7 -30 23 -11 24 -11 25 -12 4z"/>
<path d="M168 2123 c7 -3 16 -2 19 1 4 3 -2 6 -13 5 -11 0 -14 -3 -6 -6z"/>
<path d="M38 2089 c-21 -11 -38 -25 -38 -32 0 -8 3 -8 9 2 5 8 14 10 21 6 8
-5 11 -4 7 2 -4 6 4 14 18 17 14 4 25 11 25 16 0 6 -1 10 -2 9 -2 -1 -20 -10
-40 -20z"/>
<path d="M170 2101 c-14 -4 -20 -10 -14 -14 6 -3 20 0 30 8 21 16 20 16 -16 6z"/>
<path d="M106 2077 c3 -10 9 -15 12 -12 3 3 0 11 -7 18 -10 9 -11 8 -5 -6z"/>
<path d="M130 2082 c0 -6 4 -13 10 -17 5 -3 8 -11 6 -18 -1 -7 -1 -9 1 -4 3 4
10 4 16 0 7 -3 3 4 -8 18 -11 13 -21 26 -22 28 -2 2 -3 -1 -3 -7z"/>
<path d="M72 2071 c-10 -6 -10 -10 3 -21 8 -7 18 -10 22 -6 3 3 1 6 -6 6 -8 0
-11 7 -7 15 6 17 6 18 -12 6z"/>
<path d="M194 2048 c-4 -6 0 -16 8 -22 8 -6 15 -14 16 -19 0 -4 2 -11 5 -15 2
-4 2 -1 1 6 -2 6 4 12 14 13 10 0 6 5 -10 11 -16 5 -28 14 -28 19 0 4 7 6 15
3 8 -4 15 -1 15 5 0 15 -27 14 -36 -1z"/>
<path d="M113 2035 c-3 -9 -3 -18 -1 -21 3 -3 8 4 11 16 6 23 -1 27 -10 5z"/>
<path d="M53 2025 c0 -8 4 -12 9 -9 4 3 8 9 8 15 0 5 -4 9 -8 9 -5 0 -9 -7 -9
-15z"/>
<path d="M65 1999 c-4 -6 -5 -12 -2 -15 2 -3 7 2 10 11 7 17 1 20 -8 4z"/>
<path d="M133 1998 c-13 -6 -23 -17 -23 -25 0 -10 9 -7 30 9 42 30 38 38 -7
16z"/>
<path d="M170 1980 c0 -5 -7 -6 -17 -3 -10 4 -14 2 -10 -4 4 -6 18 -10 32 -10
20 0 23 2 14 13 -13 16 -19 18 -19 4z"/>
<path d="M70 1965 c-10 -13 -9 -15 8 -15 15 0 20 5 16 15 -4 8 -7 15 -9 15 -1
0 -8 -7 -15 -15z"/>
<path d="M235 1955 c4 -11 10 -28 12 -37 3 -10 9 -18 14 -18 14 0 11 13 -12
45 -12 17 -18 21 -14 10z"/>
<path d="M125 1950 c-3 -5 -1 -10 4 -10 6 0 11 5 11 10 0 6 -2 10 -4 10 -3 0
-8 -4 -11 -10z"/>
<path d="M75 1909 c-10 -30 -2 -32 12 -3 6 13 7 24 3 24 -5 0 -12 -9 -15 -21z"/>
<path d="M131 1901 c-12 -8 -12 -11 0 -23 22 -22 49 -30 42 -13 -3 8 -9 12
-14 9 -8 -5 -13 9 -10 29 1 9 -1 9 -18 -2z"/>
<path d="M46 1885 c4 -8 8 -15 10 -15 2 0 4 7 4 15 0 8 -4 15 -10 15 -5 0 -7
-7 -4 -15z"/>
<path d="M139 1778 c-1 -7 -1 -17 0 -22 1 -5 -4 -13 -11 -18 -10 -7 -10 -9 2
-5 8 2 15 10 15 18 0 8 4 17 9 20 4 4 3 10 -3 13 -6 4 -12 1 -12 -6z"/>
<path d="M5606 1745 c-11 -8 -17 -17 -14 -20 2 -3 13 4 23 15 21 23 18 25 -9
5z"/>
<path d="M690 1509 c0 -5 5 -7 10 -4 6 3 10 8 10 11 0 2 -4 4 -10 4 -5 0 -10
-5 -10 -11z"/>
<path d="M767 1464 c6 -15 23 -19 23 -5 0 5 -7 11 -14 14 -10 4 -13 1 -9 -9z"/>
<path d="M593 1455 c-9 -24 1 -27 15 -5 8 13 8 20 2 20 -6 0 -13 -7 -17 -15z"/>
<path d="M505 1450 c-3 -5 -1 -18 5 -27 11 -17 11 -17 6 0 -3 9 -1 17 4 17 6
0 10 5 10 10 0 13 -17 13 -25 0z"/>
<path d="M542 1440 c0 -14 2 -19 5 -12 2 6 2 18 0 25 -3 6 -5 1 -5 -13z"/>
<path d="M630 1450 c-8 -5 -10 -10 -5 -10 6 0 17 5 25 10 8 5 11 10 5 10 -5 0
-17 -5 -25 -10z"/>
<path d="M357 1336 c-4 -10 -1 -13 9 -9 15 6 19 23 5 23 -5 0 -11 -7 -14 -14z"/>
<path d="M5753 1216 c4 -10 7 -22 7 -27 0 -5 4 -9 8 -9 14 0 10 25 -7 40 -13
13 -14 12 -8 -4z"/>
<path d="M5780 1150 c-9 -6 -10 -10 -3 -10 6 0 15 5 18 10 8 12 4 12 -15 0z"/>
<path d="M5790 1105 c0 -19 19 -40 27 -30 5 6 6 9 4 8 -2 -2 -10 5 -17 15 -7
9 -13 13 -14 7z"/>
<path d="M4475 1042 c-11 -2 -26 -9 -34 -16 -12 -9 -13 -8 -7 2 6 10 0 9 -23
-3 -18 -9 -29 -20 -25 -26 3 -6 0 -9 -7 -8 -26 4 -68 -13 -63 -26 4 -8 -8 -15
-33 -20 -21 -4 -32 -10 -25 -12 17 -6 15 -23 -3 -23 -8 0 -15 -4 -15 -8 0 -4
-15 -15 -32 -23 -18 -9 -82 -41 -143 -71 -60 -30 -124 -59 -142 -65 -18 -6
-110 -11 -215 -11 -100 0 -237 -2 -303 -6 -162 -8 -474 -19 -505 -17 -126 7
-210 10 -210 7 0 -22 569 -242 649 -251 9 -1 29 -7 44 -14 16 -6 34 -11 41
-11 6 0 16 -4 21 -9 16 -14 149 -59 163 -54 6 3 12 0 12 -5 0 -15 31 -20 60
-9 43 16 134 36 142 31 5 -3 8 0 8 6 0 6 4 8 10 5 5 -3 18 -1 29 5 13 7 22 7
26 0 3 -5 12 -10 18 -10 7 0 6 4 -3 10 -12 8 -12 10 2 15 10 4 21 4 27 1 5 -4
26 3 46 14 19 11 39 19 43 18 4 -1 21 3 37 8 17 6 34 12 38 12 5 0 16 9 25 19
20 21 42 28 42 13 0 -6 6 -5 14 2 8 7 11 17 8 22 -3 5 0 6 6 2 6 -3 22 -1 37
6 17 8 22 14 14 19 -7 4 4 6 24 4 33 -3 38 -1 43 23 9 35 28 57 65 72 21 9 32
23 40 52 9 34 12 38 25 27 13 -11 15 -10 13 2 -1 7 3 27 9 42 7 15 11 31 11
35 -4 27 2 52 13 46 7 -5 8 -3 4 5 -5 7 -1 20 7 29 17 21 39 82 28 82 -4 0 -5
15 -3 33 3 17 1 29 -3 25 -5 -4 -13 -4 -19 0 -6 5 -20 6 -31 4z"/>
<path d="M5779 995 c-1 -3 -2 -11 -3 -17 -1 -7 -7 -12 -14 -10 -7 1 -12 -2
-12 -7 0 -6 12 -9 28 -8 20 2 26 -2 24 -15 -3 -20 10 -29 26 -19 10 6 9 15 -5
39 -16 28 -41 49 -44 37z"/>
<path d="M5770 879 c0 -5 5 -7 10 -4 6 3 10 8 10 11 0 2 -4 4 -10 4 -5 0 -10
-5 -10 -11z"/>
<path d="M5785 849 c-4 -6 -5 -12 -2 -15 2 -3 7 2 10 11 7 17 1 20 -8 4z"/>
<path d="M5803 795 c-1 -27 -1 -28 7 -7 5 12 14 22 20 22 5 0 10 4 10 8 0 4
-8 8 -17 8 -13 0 -19 -9 -20 -31z"/>
<path d="M5765 790 c-3 -5 -1 -18 5 -27 11 -17 11 -16 5 1 -3 11 0 23 7 28 9
5 10 8 1 8 -6 0 -15 -4 -18 -10z"/>
<path d="M5715 660 c3 -5 8 -10 11 -10 2 0 4 5 4 10 0 6 -5 10 -11 10 -5 0 -7
-4 -4 -10z"/>
<path d="M5698 413 c7 -3 16 -2 19 1 4 3 -2 6 -13 5 -11 0 -14 -3 -6 -6z"/>
<path d="M5697 139 c7 -7 15 -10 18 -7 3 3 -2 9 -12 12 -14 6 -15 5 -6 -5z"/>
<path d="M5730 130 c0 -5 -9 -10 -20 -10 -11 0 -20 -4 -20 -10 0 -5 11 -9 24
-8 14 1 22 6 20 10 -3 4 0 8 5 8 6 0 11 5 11 10 0 6 -4 10 -10 10 -5 0 -10 -4
-10 -10z"/>
<path d="M5686 38 c3 -4 9 -8 15 -8 5 0 9 4 9 8 0 5 -7 9 -15 9 -8 0 -12 -4
-9 -9z"/>
<path d="M5657 29 c7 -7 15 -10 18 -7 3 3 -2 9 -12 12 -14 6 -15 5 -6 -5z"/>
</g>
</svg>
